<?xml version="1.0" standalone="no"?>
<!DOCTYPE svg PUBLIC "-//W3C//DTD SVG 20010904//EN"
 "http://www.w3.org/TR/2001/REC-SVG-20010904/DTD/svg10.dtd">
<svg version="1.0" xmlns="http://www.w3.org/2000/svg"
 width="254.000000pt" height="380.000000pt" viewBox="0 0 254.000000 380.000000"
 preserveAspectRatio="xMidYMid meet">

<g transform="translate(0.000000,380.000000) scale(0.100000,-0.100000)"
fill="#000000" stroke="none">
<path d="M1340 2989 c-14 -25 -6 -49 15 -49 8 0 15 -5 15 -12 0 -6 6 -4 13 7
9 11 19 15 27 10 10 -6 11 -4 4 6 -4 8 -9 20 -11 28 -5 33 -47 40 -63 10z"/>
<path d="M997 2960 c-9 -17 -11 -28 -6 -25 5 4 9 1 9 -4 0 -6 15 -11 34 -11
31 0 33 2 32 33 -1 27 -5 32 -27 35 -22 3 -30 -3 -42 -28z"/>
<path d="M1118 2963 c12 -2 32 -2 45 0 12 2 2 4 -23 4 -25 0 -35 -2 -22 -4z"/>
<path d="M1570 2866 c0 -3 9 -10 20 -16 11 -6 20 -8 20 -6 0 3 -9 10 -20 16
-11 6 -20 8 -20 6z"/>
<path d="M1681 2798 c-11 -31 5 -53 38 -53 24 0 26 3 23 30 -7 48 -46 62 -61
23z"/>
<path d="M582 2798 c-36 -36 19 -78 58 -43 20 18 22 35 5 47 -15 12 -50 9 -63
-4z"/>
<path d="M1383 2795 c-20 -11 -21 -13 -6 -43 13 -26 18 -30 34 -22 10 6 22 17
26 25 6 10 33 15 103 18 l95 3 -99 2 c-66 1 -105 7 -115 15 -12 11 -21 11 -38
2z"/>
<path d="M900 2771 c-8 -5 -26 -14 -40 -20 -14 -7 -26 -21 -26 -31 0 -10 4
-16 8 -14 17 11 6 -12 -19 -40 l-28 -31 31 28 c17 15 42 27 57 27 28 0 29 3
31 57 1 18 1 33 1 32 0 0 -7 -4 -15 -8z"/>
<path d="M1117 2673 c-4 -3 -7 -16 -7 -27 0 -11 -17 -38 -37 -61 l-38 -40 40
36 c30 28 45 35 60 29 36 -14 61 30 33 58 -13 13 -41 16 -51 5z"/>
<path d="M940 2595 c0 -5 5 -17 10 -25 5 -8 10 -10 10 -5 0 6 -5 17 -10 25 -5
8 -10 11 -10 5z"/>
<path d="M1185 2570 c10 -11 20 -20 23 -20 3 0 -3 9 -13 20 -10 11 -20 20 -23
20 -3 0 3 -9 13 -20z"/>
<path d="M725 2560 c-10 -11 -26 -20 -36 -20 -23 0 -41 -31 -29 -50 5 -8 7
-17 5 -20 -2 -3 11 -5 29 -5 31 0 32 1 31 40 -1 22 5 48 13 58 21 24 9 22 -13
-3z"/>
<path d="M957 2543 c-4 -3 -7 -20 -7 -38 0 -17 -4 -36 -10 -43 -7 -9 -7 -9 2
-2 7 6 26 10 44 10 28 0 33 4 39 31 5 22 3 34 -6 40 -17 10 -53 12 -62 2z"/>
<path d="M1863 2521 c-1 -9 -3 -25 -5 -35 -4 -26 40 -50 60 -34 21 18 10 50
-23 68 -28 16 -31 16 -32 1z"/>
<path d="M1246 2500 c16 -21 24 -85 13 -99 -6 -8 -5 -8 3 -1 26 22 71 11 113
-27 l40 -38 -37 40 c-41 44 -48 65 -22 65 13 0 9 8 -14 29 -21 20 -37 28 -51
24 -12 -3 -29 1 -39 8 -15 12 -16 12 -6 -1z"/>
<path d="M1555 2453 c0 -41 22 -61 51 -48 11 4 22 8 25 7 4 -1 4 9 1 21 -7 29
-39 60 -47 46 -5 -6 -11 -7 -18 0 -9 7 -12 0 -12 -26z"/>
<path d="M411 2464 c-26 -19 -27 -39 -1 -71 14 -17 20 -21 20 -10 0 8 7 17 15
21 19 7 20 43 1 61 -11 12 -17 11 -35 -1z"/>
<path d="M1818 2473 c7 -3 16 -2 19 1 4 3 -2 6 -13 5 -11 0 -14 -3 -6 -6z"/>
<path d="M1668 2453 c7 -3 16 -2 19 1 4 3 -2 6 -13 5 -11 0 -14 -3 -6 -6z"/>
<path d="M1030 2446 c0 -2 8 -10 18 -17 15 -13 16 -12 3 4 -13 16 -21 21 -21
13z"/>
<path d="M1508 2433 c6 -2 18 -2 25 0 6 3 1 5 -13 5 -14 0 -19 -2 -12 -5z"/>
<path d="M1080 2386 c0 -2 8 -10 18 -17 15 -13 16 -12 3 4 -13 16 -21 21 -21
13z"/>
<path d="M796 2337 c3 -61 2 -59 42 -54 35 4 41 1 108 -65 67 -66 71 -72 64
-102 -6 -28 -4 -32 14 -34 12 -1 31 0 43 3 32 7 17 59 -19 63 -30 4 -188 161
-188 187 0 9 -9 15 -23 15 -13 0 -27 4 -32 9 -6 6 -10 -2 -9 -22z"/>
<path d="M1310 2365 c0 -5 5 -17 10 -25 5 -8 10 -10 10 -5 0 6 -5 17 -10 25
-5 8 -10 11 -10 5z"/>
<path d="M1129 2328 c17 -22 6 -38 -27 -39 -27 -2 -27 -2 -2 -6 33 -7 52 -33
37 -53 -9 -12 -9 -13 3 -2 17 15 46 16 53 2 3 -6 4 -5 3 2 -2 7 1 23 5 35 9
25 -11 53 -40 53 -9 0 -23 6 -31 13 -12 10 -12 9 -1 -5z"/>
<path d="M562 2319 c-18 -7 -23 -15 -20 -36 2 -23 8 -29 36 -31 30 -3 32 -1
32 26 0 37 -18 52 -48 41z"/>
<path d="M1915 2297 c-39 -22 -12 -80 29 -64 26 10 31 37 10 57 -16 16 -23 17
-39 7z"/>
<path d="M923 2293 c9 -2 23 -2 30 0 6 3 -1 5 -18 5 -16 0 -22 -2 -12 -5z"/>
<path d="M1486 2250 c12 -14 19 -31 17 -38 -3 -8 0 -24 7 -36 17 -33 60 -24
60 13 0 14 -7 35 -15 45 -8 11 -15 14 -15 8 0 -19 -21 -14 -49 11 l-26 22 21
-25z"/>
<path d="M660 2205 c13 -14 26 -25 28 -25 3 0 -5 11 -18 25 -13 14 -26 25 -28
25 -3 0 5 -11 18 -25z"/>
<path d="M505 2209 c-4 -6 -13 -8 -20 -5 -7 2 -18 -6 -25 -19 -18 -34 3 -59
43 -51 16 3 38 1 50 -5 21 -10 21 -9 3 5 -23 19 -48 65 -40 77 3 5 3 9 0 9 -3
0 -8 -5 -11 -11z"/>
<path d="M861 2164 c0 -11 3 -14 6 -6 3 7 2 16 -1 19 -3 4 -6 -2 -5 -13z"/>
<path d="M750 2125 c13 -14 26 -25 28 -25 3 0 -5 11 -18 25 -13 14 -26 25 -28
25 -3 0 5 -11 18 -25z"/>
<path d="M1842 2138 c-6 -6 -12 -20 -12 -30 0 -10 -4 -18 -9 -18 -5 0 -12 -7
-15 -16 -5 -13 -4 -14 7 -6 7 6 26 10 41 9 35 -3 56 24 40 51 -14 22 -36 26
-52 10z"/>
<path d="M871 2074 c0 -11 3 -14 6 -6 3 7 2 16 -1 19 -3 4 -6 -2 -5 -13z"/>
<path d="M1612 2044 c-3 -41 -1 -44 22 -44 31 0 61 37 44 57 -6 7 -18 13 -27
13 -9 0 -21 4 -26 9 -6 6 -11 -6 -13 -35z"/>
<path d="M826 2060 c11 -14 20 -32 19 -40 -2 -25 15 -50 33 -50 25 0 42 20 42
47 0 21 -20 30 -54 24 -5 -1 -20 8 -35 21 l-26 23 21 -25z"/>
<path d="M1261 2067 c-1 -10 -8 -20 -16 -23 -12 -5 -12 -9 1 -29 21 -32 39
-37 64 -17 19 16 20 19 5 40 -9 12 -22 22 -30 22 -7 0 -16 6 -18 13 -3 7 -6 5
-6 -6z"/>
<path d="M720 2060 c-8 -5 -17 -7 -21 -5 -12 8 3 -44 17 -56 25 -21 75 14 58
42 -10 17 -40 28 -54 19z"/>
<path d="M798 2023 c6 -2 18 -2 25 0 6 3 1 5 -13 5 -14 0 -19 -2 -12 -5z"/>
<path d="M1433 1982 c-7 -31 17 -57 46 -47 13 4 21 15 21 29 0 46 -56 61 -67
18z"/>
<path d="M1659 1953 c-13 -16 -12 -17 4 -4 9 7 17 15 17 17 0 8 -8 3 -21 -13z"/>
<path d="M1549 1923 c-13 -16 -12 -17 4 -4 9 7 17 15 17 17 0 8 -8 3 -21 -13z"/>
<path d="M1609 1913 c-13 -16 -12 -17 4 -4 9 7 17 15 17 17 0 8 -8 3 -21 -13z"/>
<path d="M1559 1873 c-13 -16 -12 -17 4 -4 9 7 17 15 17 17 0 8 -8 3 -21 -13z"/>
<path d="M1479 1833 c-13 -16 -12 -17 4 -4 9 7 17 15 17 17 0 8 -8 3 -21 -13z"/>
<path d="M1509 1833 c-13 -16 -12 -17 4 -4 9 7 17 15 17 17 0 8 -8 3 -21 -13z"/>
<path d="M1445 1790 c-14 -16 -21 -18 -28 -8 -6 9 -7 8 -3 -5 4 -12 -1 -20
-18 -27 -51 -19 -39 -84 13 -78 30 3 41 39 20 65 -11 13 -8 19 21 44 19 16 30
29 24 29 -6 0 -19 -9 -29 -20z"/>
</g>
</svg>
